<?xml version="1.0" encoding="utf-8"?>
<!-- Generator: Adobe Illustrator 21.1.0, SVG Export Plug-In . SVG Version: 6.00 Build 0)  -->
<svg version="1.1" id="Ebene_1" xmlns="http://www.w3.org/2000/svg" xmlns:xlink="http://www.w3.org/1999/xlink" x="0px" y="0px"
	 viewBox="0 0 400 130" style="enable-background:new 0 0 400 130;" xml:space="preserve">
<g>
	<path fill="#00447C" d="M341.8,23.9c6.7,19.3,13.8,38.5,20.5,57.9h16l20.2-57.9h-14.4c-4.2,13.8-8.6,28.6-12.7,42.3h-2.5L356,23.9
		H341.8z M337.3,21.4c-9.1,0.7-17.7,7.8-17.7,7.8l-3.8-6.3c-3.1,0.3-5.9,0.9-9.2,1.2v57.7h13.8V36.3c0,0,9.7-2.3,15.2-2.3
		L337.3,21.4z M272,31.7c5.4,0,10.4,4.8,10.4,15.8h-22.6C259.9,32.2,266.9,31.7,272,31.7 M271.6,22.9c-15.2,0-25.8,10.5-25.8,30
		c0,19.5,11,30.6,25,30.3c14.1-0.3,22.3-5,22.3-5l-1-7.2c-2.1,0.6-9.5,2.5-16.7,2.5c-9.2,0-15.8-6.9-15.8-18.9l35,0.7
		c0.1-0.4,0.9-1.6,1-1.9c0.1-1.3,0.3-2.8,0.3-4.2C295.9,31.7,286.8,22.9,271.6,22.9 M189.8,80.1c1.2,0.4,7.8,3.1,18.5,3.1
		c16.7,0,29.9-7.6,29.9-25.1c0-25.3-36.8-20.7-36.8-36.5c0-6.6,4.8-9.8,14.6-9.8c7.9,0,15.4,1.5,15.4,1.5c0.3-3.1,0.6-6.3,1.2-9.7
		c-1.2-0.3-7.5-2.2-17.4-2.2c-14.5,0-27.5,5-27.5,23c0,24.3,36.5,20.4,36.5,36.3c0,9.4-11,11-17.4,11c-6.3,0-17-2.9-17-2.9
		L189.8,80.1z M174.7,74.3c-2.3-0.1-5.1-0.6-7.5-0.7V11.1l7.5-0.7V2.6h-29.3v7.8c2.5,0.1,5.3,0.6,7.5,0.7v62.4l-7.5,0.7v7.5h29.3
		V74.3z"/>
	<path fill="#00447C" d="M91.2,113.4c0,7.2,6.1,13.3,14,13.3c7.2,0,13.5-6.1,13.5-13.3c0-7.4-6.3-13.5-13.5-13.5
		C97.3,99.9,91.2,106,91.2,113.4"/>
	<path fill="#7295C8" d="M46.7,113.4c0,7.2,6.1,13.3,14,13.3c7.2,0,13.5-6.1,13.5-13.3c0-7.4-6.3-13.5-13.5-13.5
		C52.8,99.9,46.7,106,46.7,113.4"/>
	<path fill="#FAB900" d="M2.2,113.4c0,7.2,6.1,13.3,14,13.3c7.2,0,13.5-6.1,13.5-13.3c0-7.4-6.3-13.5-13.5-13.5
		C8.3,99.9,2.2,106,2.2,113.4"/>
	<path fill="#00447C" d="M394.9,113.4c0-7.3-6.2-13.3-13.2-13.5v0H149.3v0c-7.7,0.2-13.6,6.2-13.6,13.5c0,7.1,5.9,13.1,13.6,13.3v0.1
		h232.3v-0.1C388.7,126.6,394.9,120.5,394.9,113.4"/>
</g>
</svg>
